<!-- Generator: Adobe Illustrator 24.1.3, SVG Export Plug-In  -->
<svg version="1.1" xmlns="http://www.w3.org/2000/svg" xmlns:xlink="http://www.w3.org/1999/xlink" x="0px" y="0px"
	 width="133.16px" height="128.65px" viewBox="0 0 133.16 128.65"
	 style="overflow:visible;enable-background:new 0 0 133.16 128.65;" xml:space="preserve">
<style type="text/css">
	.st0{fill:#EC1B23;}
	.st1{fill:#06589F;}
	.st2{fill:#FDD64E;}
	.st3{fill:#FFD400;}
</style>
<defs>
</defs>
<g>
	<path id="path5_2_" class="st0" d="M48.42,11.61C54.58,7.89,63.06,7.15,66.59,0c3.79,7.32,12.59,8.05,18.92,12.1
		c3.98,2.48,8.21,5.36,10.11,9.83c1.53,3.12-1.89,7.24-5.27,6.21c-5.8-1.04-10.97-5.48-17.13-4.29c-2.95,0.38-4.85,2.84-6.66,4.93
		c-2.03-2.43-4.53-4.86-7.92-4.99c-5.79-0.77-10.54,3.34-15.99,4.37c-3.37,0.95-6.71-3.21-5.1-6.29
		C39.55,17.11,44.16,14.18,48.42,11.61L48.42,11.61z"/>
	<path id="path7_2_" class="st0" d="M67.39,34.63c0.78-3.4,2.01-7.61,5.95-8.42c7.95-0.73,15.25,6.22,23.24,2.64
		c-0.7,8.5,7.46,13.33,9.69,20.79c0.98,4.24-3,6.96-5.91,9.14c-3.84-8.17-9.41-15.92-17.77-19.91
		C77.9,36.36,72.59,35.52,67.39,34.63z"/>
	<path id="path9_2_" class="st0" d="M36.42,28.87c8.06,3.59,15.42-3.41,23.45-2.66c3.92,0.91,5.01,5.1,5.93,8.44
		c-9.02,0.95-18.08,4.2-24.42,10.91c-3.78,3.69-6.1,8.48-8.48,13.11c-3.12-2-7.06-4.78-6.04-9.08
		C29.03,42.15,37.32,37.37,36.42,28.87z"/>
	<path id="path11_2_" class="st0" d="M17,34.33c3.62-3.08,7.74-6.18,12.62-6.63c3.45-0.24,6.2,4.07,4.22,7.02
		c-2.93,5.02-8.75,8.59-9.25,14.84c-0.58,2.89,1.12,5.43,2.37,7.86c-2.56,1.24-5.59,2.35-6.78,5.21
		c-3.04,5.83,0.09,12.46-1.28,18.53c-1.43,3.55-6.25,3.74-8.46,0.82c-5.42-6.91-5.91-16.12-6.59-24.52c-0.2-3.25-2.11-5.97-3.85-8.6
		C7.85,46.96,11.23,39.1,17,34.33L17,34.33z"/>
	<path id="path13_2_" class="st0" d="M98.74,33.62c-0.99-3.41,2.71-6.84,6.07-5.79c8.36,2.18,14.26,9.06,19.56,15.45
		c2.21,2.83,5.5,4.39,8.79,5.6c-5.7,6.36-3.39,15.3-5.73,22.87c-1.4,4.66-3.01,10.56-8.14,12.36c-2.42,0.15-4.98-1.49-5.34-4
		c-0.53-5.8,1.92-11.98-0.98-17.46c-1.19-2.83-4.2-3.99-6.77-5.23c1.27-2.44,2.88-4.99,2.33-7.89
		C108,42.83,101.37,39.31,98.74,33.62z"/>
	<path id="path15_2_" class="st0" d="M21.98,64.31c1.47-4.39,6.69-4.77,10.6-4.47C30.93,67.61,30.57,76,33.8,83.43
		c2.25,6.09,6.73,10.9,11.39,15.25c-2.97,2.5-7.14,5.13-10.98,2.83c-6.03-4.65-8.34-13.52-16.44-15.55
		C23.35,79.96,20.09,71.46,21.98,64.31z"/>
	<path id="path17_2_" class="st0" d="M100.55,59.86c3.65-0.2,8.2-0.17,10.21,3.51c2.8,7.31-1.31,16.32,4.59,22.6
		c-8.17,2.01-10.41,11.01-16.54,15.62c-3.85,2.18-7.94-0.45-10.87-2.92c5.67-5.06,10.68-11.2,12.61-18.71
		C102.56,73.42,101.89,66.47,100.55,59.86L100.55,59.86z"/>
	<path id="path19_2_" class="st0" d="M14.41,93.17c0.08-3.62,5.14-5.88,7.74-3.25c4.22,4.25,5.77,10.98,11.46,13.81
		c2.59,1.67,5.67,0.82,8.39,0.08c0.33,3.24,1.02,6.73,3.79,8.8c4.72,4.54,12.18,3.11,17.19,7c1.64,3.01,0.15,6.75-3.13,7.74
		c-8.19,2.8-16.95,0.49-25.07-1.49c-3.24-0.98-6.47,0.14-9.54,1.08c-0.03-3.42-0.17-7.03-2.21-9.95
		C18.59,109.82,13.64,101.97,14.41,93.17z"/>
	<path id="path21_2_" class="st0" d="M110.97,89.89c2.7-2.6,7.57-0.29,7.82,3.3c0.65,8.75-4.24,16.58-8.67,23.72
		c-2,2.95-2.3,6.54-2.3,10c-7.52-3.62-15.04,1.29-22.67,1.55c-4.53,0.21-9.62,0.54-13.6-2.07c-2.99-1.72-2.85-6.92,0.54-8.11
		c5.25-2.19,11.77-1.86,15.91-6.3c2.34-2.06,2.75-5.26,3.16-8.15c2.71,0.71,5.74,1.55,8.31-0.07
		C105.18,100.93,106.76,94.17,110.97,89.89L110.97,89.89z"/>
	<path id="path23_2_" class="st0" d="M46.29,99.43c6.18,3.54,13.03,6.49,20.32,6.2c7.27,0.25,14.11-2.63,20.27-6.22
		c1.29,3.49,3.05,8.13-0.37,11.03c-6.14,4.68-15.82,3.74-19.95,11.26c-4.15-7.51-13.81-6.58-19.98-11.26
		C43.23,107.51,44.82,102.9,46.29,99.43z"/>
	<g id="_x23_06589fff_2_" transform="translate(-11.63,-6.52)">
		<path id="path26_2_" class="st1" d="M101.95,53.36c-6.14-6.28-14.91-9.88-23.67-9.91c-2.18,0-4.36,0.21-6.5,0.66
			c-18.57,3-31.24,23.59-25.82,41.56c3.65,14.15,17.53,24.93,32.23,24.49c5.75,0.18,11.37-1.36,16.28-4.15
			c7.78-4.4,13.86-11.91,16.03-20.65C113.47,74.15,110.18,61.56,101.95,53.36z M70.61,73.54h15.17l0.01,3.38
			c-5.07,0-10.13,0.01-15.21,0L70.61,73.54z M85.84,92.69c-0.03,0.85-0.1,2.55-0.14,3.39c-5.01-0.07-10.02-0.05-15.03,0.04
			c-0.04-0.86-0.11-2.55-0.15-3.41C75.64,92.82,80.74,92.67,85.84,92.69z M63.96,103.13c0.07-12.13,0.01-24.25,0.03-36.37
			c1.74,0.03,3.48,0.05,5.22,0.08v0.17c0.01,9.95-0.04,19.9,0.01,29.85c0,2.09,0.01,4.16,0.03,6.25
			C67.47,103.11,65.72,103.11,63.96,103.13L63.96,103.13z M78.18,103.34c-2.68-2.14-5.38-4.29-8.03-6.47
			c5.36-0.08,10.73-0.09,16.09-0.03C83.57,99.03,80.87,101.18,78.18,103.34L78.18,103.34z M87.14,103.09c0-2.09,0.01-4.16,0.01-6.25
			c0.01-10,0-20.02,0-30.02c1.73-0.01,3.46-0.03,5.21-0.04c0.01,12.12-0.04,24.23,0.03,36.35C90.63,103.11,88.88,103.1,87.14,103.09
			z"/>
	</g>
	<g id="_x23_fdd64eff_2_" transform="translate(-11.63,-6.52)">
		<path id="path29_2_" class="st2" d="M63.99,66.76c1.74,0.03,3.48,0.05,5.22,0.08c0.01,12.09-0.07,24.18,0.04,36.27
			c-1.77,0-3.53,0-5.29,0.01C64.03,91,63.97,78.88,63.99,66.76L63.99,66.76z"/>
		<path id="path31_2_" class="st2" d="M87.15,66.81c1.73-0.01,3.46-0.03,5.21-0.04c0.01,12.12-0.04,24.23,0.03,36.35
			c-1.76-0.01-3.5-0.03-5.25-0.04C87.18,91,87.15,78.9,87.15,66.81z"/>
		<path id="path33_2_" class="st2" d="M70.61,73.54c5.05,0,10.11,0,15.17,0l0.01,3.38c-5.07,0-10.13,0.01-15.21,0L70.61,73.54z"/>
		<path id="path35_2_" class="st2" d="M70.53,92.71c5.11,0.11,10.21-0.04,15.31-0.03c-0.03,0.85-0.1,2.55-0.15,3.39
			c-5.01-0.07-10.02-0.05-15.02,0.04C70.63,95.26,70.57,93.57,70.53,92.71z"/>
		<path id="path37_2_" class="st2" d="M70.14,96.86c5.36-0.08,10.73-0.09,16.09-0.03c-2.67,2.19-5.36,4.35-8.06,6.5
			C75.5,101.2,72.8,99.04,70.14,96.86L70.14,96.86z"/>
	</g>
	<circle id="circle39_2_" class="st2" cx="66.51" cy="78.42" r="6.71"/>
	<g id="g41_2_" transform="translate(-11.63,-6.52)">
		<path id="path43_2_" class="st1" d="M73.81,90.07c-0.14-1.26,0.06-2.62,0.82-3.75c0.37-0.57,0.93-1.02,1.55-1.31
			c0.62-0.28,1.33-0.39,1.97-0.4c1.22,0.02,2.37-0.44,3.08-1.42c0.71-0.96,1.01-2.24,1.1-3.5c0.18,1.26,0.03,2.62-0.68,3.78
			c-0.34,0.58-0.89,1.06-1.5,1.37c-0.61,0.3-1.35,0.41-1.97,0.43c-1.23-0.02-2.39,0.4-3.13,1.35
			C74.29,87.55,73.94,88.82,73.81,90.07L73.81,90.07z"/>
	</g>
	<circle id="circle45_2_" class="st1" cx="65.81" cy="74.5" r="0.96"/>
	<circle id="circle47_2_" class="st1" cx="67.39" cy="82.06" r="0.96"/>
	<path id="path49_2_" class="st2" d="M58.73,59.83c5.36-0.08,10.73-0.09,16.09-0.03c-2.67,2.19-5.36,4.35-8.06,6.5
		C64.08,64.17,61.38,62.01,58.73,59.83L58.73,59.83z"/>
	<g id="g51_2_" transform="translate(-11.63,-6.52)">
		<path id="path53_2_" class="st2" d="M70.11,57.15c1.13,1.77,2.4,3.07,3.78,3.79c1.34,0.73,2.87,0.96,4.42,0.96
			c1.73-0.02,3.13-0.26,4.53-1.01c1.38-0.74,2.69-2.01,3.88-3.74c0.43,2.08-0.26,4.43-1.91,6.16c-1.63,1.76-4.23,2.57-6.38,2.55
			c-1.22,0-2.33-0.16-3.48-0.57c-1.12-0.4-2.2-1.07-3.02-1.94C70.25,61.6,69.61,59.21,70.11,57.15L70.11,57.15z"/>
	</g>
	<circle id="circle55_2_" class="st2" cx="66.55" cy="49.53" r="5.28"/>
	<path id="flame_2_" class="st3" d="M64.97,41.37c0,0.99,0.81,1.8,1.8,1.8c0.99,0,1.8-0.81,1.8-1.8c0-0.72-0.45-0.81-0.45-1.08
		s0.27-0.63-0.27-1.08c0.27,0.45-0.18,0.54-0.18,0.99s0.18,0.45,0.18,0.81c0,0.2-0.16,0.36-0.36,0.36s-0.36-0.16-0.36-0.36
		c0-0.36,0.36-0.72,0.36-1.26c0-0.54-0.09-0.72-0.36-1.17c-0.27-0.45-0.72-0.81-0.36-1.17c-0.54,0.18-0.27,0.9-0.27,1.35
		c0,0.45-0.36,0.72-0.36,1.26c0,0.54,0.27,0.63,0.27,0.99c0,0.2-0.16,0.36-0.36,0.36s-0.36-0.16-0.36-0.36
		c0-0.36,0.18-0.36,0.18-0.81s-0.45-0.54-0.18-0.99c-0.54,0.45-0.27,0.81-0.27,1.08C65.43,40.56,64.97,40.65,64.97,41.37
		 M64.97,41.37L64.97,41.37L64.97,41.37z"/>
</g>
</svg>
