<svg width="40" height="40" viewBox="0 0 40 40" fill="none" xmlns="http://www.w3.org/2000/svg">
<circle cx="20" cy="20" r="20" fill="#FFEFCA"/>
<path d="M17.2272 17.6089L15.9528 17.9309L16.0464 18.2667L16.1232 18.5105L16.7376 18.3541C17.2344 18.2276 17.7456 18.5105 17.8776 18.9866L20.1936 27.3563C20.3232 27.8324 20.0256 28.3223 19.5312 28.4488L15.4368 29.4907C14.9448 29.6172 14.424 29.3366 14.28 28.8674L13.8168 27.3609C13.74 27.1125 13.464 26.963 13.2024 27.0297L11.7456 27.4253C11.2416 27.5518 10.7352 27.2735 10.6056 26.802L9.0624 21.2337C8.9304 20.7576 9.228 20.2677 9.7248 20.1412L10.1448 20.0354L9.9816 19.4512L8.9376 19.718C8.2704 19.8859 7.8672 20.5322 8.04 21.1532L10.6728 30.6591C10.8456 31.2801 11.5296 31.6504 12.1944 31.4802L20.484 29.3734C21.1512 29.2032 21.552 28.5592 21.3792 27.9359L18.7488 18.43C18.5784 17.809 17.892 17.4387 17.2272 17.6089ZM13.4712 29.1687L11.9472 28.2234C11.6184 28.0187 10.9224 27.5242 11.0064 27.5012C11.0904 27.4759 11.6088 27.8002 12.3456 27.5817L12.7608 27.4713C13.1376 27.3701 13.5288 27.5817 13.6296 27.9474L13.7808 28.4902C13.9536 29.1549 14.5008 29.332 14.5296 29.4401C14.5608 29.5459 13.8024 29.3734 13.4712 29.1687Z" fill="#FFC740"/>
<path d="M14.8441 17.5652L13.8553 17.8159C13.7041 17.4502 13.0369 17.303 12.6313 17.4065C12.2257 17.51 11.7193 17.9539 11.7793 18.3426L10.7905 18.5956C10.4761 18.6738 10.2865 18.9889 10.3705 19.2902L10.4281 19.4972L10.6873 20.4425L15.8881 19.12L15.6289 18.177L15.5713 17.9677C15.4849 17.6687 15.1585 17.487 14.8441 17.5652ZM12.9409 18.5979C12.7057 18.6577 12.4633 18.522 12.4009 18.2966C12.3385 18.0712 12.4777 17.8389 12.7129 17.7791C12.9505 17.7193 13.1905 17.8527 13.2529 18.0781C13.3177 18.3058 13.1785 18.5381 12.9409 18.5979Z" fill="#FFC740"/>
<path d="M22.4954 9C24.773 9 26.6186 10.7687 26.6186 12.9491C26.6186 15.1295 24.773 16.9005 22.4954 16.9005C20.2226 16.9005 18.377 15.1295 18.377 12.9491C18.377 10.7687 20.2202 9 22.4954 9Z" fill="#FFC740"/>
<path d="M30.1968 20.3942C29.676 18.6554 28.7712 17.9033 27.0336 17.9033H26.1408L24 27.1493L31.5216 27.1355L30.1968 20.3942ZM28.9656 23.0024H26.2224V22.4136H28.9656V23.0024Z" fill="#FFC740"/>
<path d="M22.2573 17.7883L20.5317 20.5874L22.0365 27.1355H22.8477L24.3333 20.4816L22.2573 17.7883Z" fill="#FFC740"/>
<path fill-rule="evenodd" clip-rule="evenodd" d="M14.8656 28.7041C14.9088 28.8444 15.0456 28.941 15.1992 28.941C15.228 28.941 15.2568 28.9364 15.2856 28.9295L19.3776 27.8876C19.4616 27.8646 19.5312 27.814 19.5768 27.7427C19.6176 27.6714 19.632 27.5886 19.608 27.5081L17.292 19.1384C17.256 19.0027 17.1264 18.9084 16.98 18.9084C16.9512 18.9084 16.9248 18.9107 16.896 18.9176L16.4448 19.0326L16.572 19.4949L10.2696 21.098L10.14 20.638L9.88083 20.7024C9.70803 20.7484 9.60483 20.9186 9.65043 21.0842L11.1936 26.6525C11.232 26.7836 11.3568 26.8756 11.496 26.8756C11.5224 26.8756 11.5512 26.8733 11.5752 26.8664L13.0368 26.4731C13.1328 26.4501 13.2312 26.4363 13.3296 26.4363C13.8216 26.4363 14.2656 26.7491 14.4024 27.1976L14.8656 28.7041ZM14.2802 24.4295L12.0579 23.567L12.3542 24.717L14.7246 25.7233L16.4448 20.7024L15.2856 21.098L14.2802 24.4295Z" fill="#FFC740"/>
</svg>
